<!DOCTYPE svg PUBLIC "-//W3C//DTD SVG 1.1//EN" "http://www.w3.org/Graphics/SVG/1.1/DTD/svg11.dtd">

<!-- Uploaded to: SVG Repo, www.svgrepo.com, Transformed by: SVG Repo Mixer Tools -->
<svg fill="#ffffff" height="800px" width="800px" version="1.1" id="Layer_1" xmlns="http://www.w3.org/2000/svg" xmlns:xlink="http://www.w3.org/1999/xlink" viewBox="0 0 512 512" xml:space="preserve" stroke="#ffffff">

<g id="SVGRepo_bgCarrier" stroke-width="0"/>

<g id="SVGRepo_tracerCarrier" stroke-linecap="round" stroke-linejoin="round"/>

<g id="SVGRepo_iconCarrier"> <g> <g> <path d="M466.737,71.972c-58.491-59.366-149.473-61.828-210.738-14.317C192.2,8.176,101.444,14.952,45.262,71.972 c-61.149,62.064-60.22,163.233,2.07,225.523L224.147,474.31c17.604,17.604,46.099,17.607,63.705,0l176.817-176.816 C526.959,235.203,527.888,134.034,466.737,71.972z M115.784,231.332c-19.223,0-34.807-15.584-34.807-34.807 s15.584-34.807,34.807-34.807s34.807,15.584,34.807,34.807S135.007,231.332,115.784,231.332z M158.724,284.876 c-10.044,0-18.189-8.143-18.189-18.189c0-10.044,8.143-18.189,18.189-18.189c10.046,0,18.189,8.143,18.189,18.189 C176.913,276.734,168.77,284.876,158.724,284.876z"/> </g> </g> </g>

</svg>